<mxfile host="Electron" agent="Mozilla/5.0 (Macintosh; Intel Mac OS X 10_15_7) AppleWebKit/537.36 (KHTML, like Gecko) draw.io/24.7.17 Chrome/128.0.6613.36 Electron/32.0.1 Safari/537.36" version="24.7.17">
  <diagram name="Page-1" id="oo-ZgDfyL9Ay4hEghHGP">
    <mxGraphModel dx="1446" dy="1007" grid="1" gridSize="10" guides="1" tooltips="1" connect="1" arrows="1" fold="1" page="1" pageScale="1" pageWidth="850" pageHeight="1100" math="1" shadow="0">
      <root>
        <mxCell id="0" />
        <mxCell id="1" parent="0" />
        <mxCell id="JOIaLlwkwSo3AZo7ApRx-3" value="" style="endArrow=classic;html=1;rounded=0;strokeWidth=9;fillColor=#dae8fc;strokeColor=#6c8ebf;" edge="1" parent="1">
          <mxGeometry width="50" height="50" relative="1" as="geometry">
            <mxPoint x="360" y="440" as="sourcePoint" />
            <mxPoint x="440" y="120" as="targetPoint" />
          </mxGeometry>
        </mxCell>
        <mxCell id="JOIaLlwkwSo3AZo7ApRx-4" value="" style="endArrow=classic;html=1;rounded=0;strokeWidth=9;fillColor=#d5e8d4;strokeColor=#82b366;" edge="1" parent="1">
          <mxGeometry width="50" height="50" relative="1" as="geometry">
            <mxPoint x="440" y="120" as="sourcePoint" />
            <mxPoint x="680" y="200" as="targetPoint" />
          </mxGeometry>
        </mxCell>
        <mxCell id="JOIaLlwkwSo3AZo7ApRx-5" value="" style="endArrow=classic;html=1;rounded=0;strokeWidth=9;fillColor=#f8cecc;strokeColor=#b85450;" edge="1" parent="1">
          <mxGeometry width="50" height="50" relative="1" as="geometry">
            <mxPoint x="360" y="440" as="sourcePoint" />
            <mxPoint x="680" y="200" as="targetPoint" />
          </mxGeometry>
        </mxCell>
        <mxCell id="JOIaLlwkwSo3AZo7ApRx-6" value="$$\text{Condition score}$$" style="text;html=1;align=center;verticalAlign=middle;whiteSpace=wrap;rounded=0;fontSize=20;" vertex="1" parent="1">
          <mxGeometry x="480" y="350" width="160" height="40" as="geometry" />
        </mxCell>
        <mxCell id="JOIaLlwkwSo3AZo7ApRx-7" value="$$\text{Uncondition score}$$" style="text;html=1;align=center;verticalAlign=middle;whiteSpace=wrap;rounded=0;fontSize=20;rotation=-75;" vertex="1" parent="1">
          <mxGeometry x="300" y="210" width="160" height="40" as="geometry" />
        </mxCell>
        <mxCell id="JOIaLlwkwSo3AZo7ApRx-8" value="$$\text{Adversarial gradient}$$" style="text;html=1;align=center;verticalAlign=middle;whiteSpace=wrap;rounded=0;fontSize=20;" vertex="1" parent="1">
          <mxGeometry x="460" y="80" width="220" height="40" as="geometry" />
        </mxCell>
      </root>
    </mxGraphModel>
  </diagram>
</mxfile>
